<?xml version="1.0" encoding="UTF-8"?>
<svg width="14px" height="14px" viewBox="0 0 14 14" version="1.1" xmlns="http://www.w3.org/2000/svg" xmlns:xlink="http://www.w3.org/1999/xlink">
    <!-- Generator: Sketch 55.2 (78181) - https://sketchapp.com -->
    <title>icon_baocun</title>
    <desc>Created with Sketch.</desc>
    <g id="工作台V2.7" stroke="none" stroke-width="1" fill="none" fill-rule="evenodd">
        <g id="供应商_预刻画_基础部分_中小微企业_默认" transform="translate(-1334.000000, -189.000000)" fill="#FFFFFF" fill-rule="nonzero">
            <g id="编组-6" transform="translate(1000.000000, 184.000000)">
                <g id="编组-4" transform="translate(320.000000, 0.000000)">
                    <g id="保存" transform="translate(14.000000, 5.000000)">
                        <path d="M3.07000241,12.7480605 C1.93000108,12.7480605 1,11.8480595 1,10.7380582 L1,3.2560495 C1,2.15204822 1.93000108,1.25204717 3.07000241,1.25204717 L10.9300116,1.25204717 C12.0700129,1.25204717 13.000014,2.15204822 13.000014,3.26204951 L13.000014,10.7440582 C13.000014,11.8540595 12.0700129,12.7540606 10.9300116,12.7540606 L3.07000241,12.7540606 L3.07000241,12.7480605 Z M3.07000241,2.2240483 C2.47600172,2.2240483 1.99600116,2.68604884 1.99600116,3.2560495 L1.99600116,10.7380582 C1.99600116,11.3080589 2.47600172,11.7700594 3.07000241,11.7700594 L10.9300116,11.7700594 C11.5240122,11.7700594 12.0040128,11.3080589 12.0040128,10.7380582 L12.0040128,3.2560495 C12.0040128,2.68604884 11.5240122,2.2240483 10.9300116,2.2240483 L10.8880115,2.2240483 L10.8880115,7.13205401 L3.11800246,7.13205401 L3.11800246,2.2240483 L3.07000241,2.2240483 Z M9.88601034,6.16005288 L9.88601034,2.2240483 L4.11400362,2.2240483 L4.11400362,6.16005288 L9.88601034,6.16005288 Z M8.00200815,5.76405242 L8.00200815,3.07004928 L8.99800931,3.07004928 L8.99800931,5.76405242 L8.00200815,5.76405242 Z" id="形状"></path>
                    </g>
                </g>
            </g>
        </g>
    </g>
</svg>