<?xml version="1.0" encoding="UTF-8"?>
<svg width="12px" height="12px" viewBox="0 0 12 12" version="1.1" xmlns="http://www.w3.org/2000/svg" xmlns:xlink="http://www.w3.org/1999/xlink">
    <!-- Generator: Sketch 55.2 (78181) - https://sketchapp.com -->
    <title>icon_baocun</title>
    <desc>Created with Sketch.</desc>
    <g id="工作台V2.7" stroke="none" stroke-width="1" fill="none" fill-rule="evenodd">
        <g id="供应商_预刻画_基础部分_资质证书_选择其他" transform="translate(-1335.000000, -190.000000)" fill="#333333" fill-rule="nonzero">
            <g id="编组-6" transform="translate(1000.000000, 184.000000)">
                <g id="编组-4" transform="translate(320.000000, 0.000000)">
                    <g id="保存" transform="translate(15.000000, 6.000000)">
                        <path d="M2.07000241,11.7480605 C0.930001082,11.7480605 0,10.8480595 0,9.73805821 L0,2.2560495 C0,1.15204822 0.930001082,0.252047168 2.07000241,0.252047168 L9.93001155,0.252047168 C11.0700129,0.252047168 12.000014,1.15204822 12.000014,2.26204951 L12.000014,9.74405821 C12.000014,10.8540595 11.0700129,11.7540606 9.93001155,11.7540606 L2.07000241,11.7540606 L2.07000241,11.7480605 Z M2.07000241,1.2240483 C1.47600172,1.2240483 0.996001159,1.68604884 0.996001159,2.2560495 L0.996001159,9.73805821 C0.996001159,10.3080589 1.47600172,10.7700594 2.07000241,10.7700594 L9.93001155,10.7700594 C10.5240122,10.7700594 11.0040128,10.3080589 11.0040128,9.73805821 L11.0040128,2.2560495 C11.0040128,1.68604884 10.5240122,1.2240483 9.93001155,1.2240483 L9.88801151,1.2240483 L9.88801151,6.13205401 L2.11800246,6.13205401 L2.11800246,1.2240483 L2.07000241,1.2240483 Z M8.88601034,5.16005288 L8.88601034,1.2240483 L3.11400362,1.2240483 L3.11400362,5.16005288 L8.88601034,5.16005288 Z M7.00200815,4.76405242 L7.00200815,2.07004928 L7.99800931,2.07004928 L7.99800931,4.76405242 L7.00200815,4.76405242 Z" id="形状"></path>
                    </g>
                </g>
            </g>
        </g>
    </g>
</svg>