<?xml version="1.0" encoding="UTF-8"?>
<svg width="16px" height="16px" viewBox="0 0 16 16" version="1.1" xmlns="http://www.w3.org/2000/svg" xmlns:xlink="http://www.w3.org/1999/xlink">
    <!-- Generator: Sketch 55.2 (78181) - https://sketchapp.com -->
    <title>icon_date</title>
    <desc>Created with Sketch.</desc>
    <g id="工作台V2.7" stroke="none" stroke-width="1" fill="none" fill-rule="evenodd">
        <g id="供应商_预刻画_基础部分_资质证书_已选为投标材料状态" transform="translate(-1364.000000, -339.000000)" fill="#666666" fill-rule="nonzero">
            <g id="编组-6" transform="translate(1000.000000, 184.000000)">
                <g id="编组-9" transform="translate(0.000000, 51.000000)">
                    <g id="日历" transform="translate(364.000000, 104.000000)">
                        <path d="M3.85815036,4.03205027 L4.88786244,4.03205027 C5.0427238,4.03205027 5.16976286,3.90544811 5.16976286,3.75060908 L5.16976286,1.48544088 C5.16976286,1.33058586 5.04272378,1.2039837 4.88786244,1.2039837 L3.85815036,1.2039837 C3.70148216,1.2039837 3.57669764,1.33058586 3.57669764,1.48544088 L3.57669764,3.75062508 C3.57669764,3.90544811 3.70148216,4.03205027 3.85815036,4.03205027 Z M11.113049,4.03205027 L12.1432248,4.03205027 C12.2985338,4.03205027 12.4246775,3.90544811 12.4246775,3.75060908 L12.4246775,1.48544088 C12.4246775,1.33058586 12.2985338,1.2039837 12.1432248,1.2039837 L11.113049,1.2039837 C10.9577559,1.2039837 10.8297894,1.33058586 10.8297894,1.48544088 L10.8297894,3.75062508 C10.8297894,3.90544811 10.9577559,4.03205027 11.113049,4.03205027 Z M13.3551248,2.28694545 L12.9934991,2.28694545 L12.9934991,3.75062508 C12.9934991,4.21877167 12.6118702,4.60222369 12.1432248,4.60222369 L11.113049,4.60222369 C10.6448832,4.60222369 10.2614155,4.21878766 10.2614155,3.75062508 L10.2614155,2.28694545 L5.73813681,2.28694545 L5.73813681,3.75062508 C5.73813681,4.21877167 5.35650791,4.60222369 4.88786244,4.60222369 L3.85815036,4.60222369 C3.38905717,4.60222369 3.00696456,4.21878766 3.00696456,3.75062508 L3.00696456,2.28694545 L2.64170923,2.28694545 C1.73906822,2.28694545 1.00446416,3.02105572 1.00446416,3.92458713 L1.00446416,6.96486181 L1.00446416,13.1556565 C1.00446416,14.061906 1.73906822,14.7960323 2.64170923,14.7960323 L13.3551248,14.7960323 C14.2600364,14.7960323 14.9955518,14.061906 14.9955518,13.1556565 L14.9955518,6.96486183 L14.9955518,3.92457114 C14.9955518,3.02105572 14.2600364,2.28694545 13.3551248,2.28694545 Z M13.9581007,13.1556405 C13.9581007,13.4890144 13.6880167,13.7585757 13.3551248,13.7585757 L2.64170923,13.7585757 C2.31153556,13.7585757 2.042379,13.4890145 2.042379,13.1556405 L2.042379,6.96486183 L13.9581007,6.96486183 L13.9581007,13.1556405 L13.9581007,13.1556405 Z" id="形状"></path>
                    </g>
                </g>
            </g>
        </g>
    </g>
</svg>